<?xml version="1.0" standalone="no"?>
<!DOCTYPE svg PUBLIC "-//W3C//DTD SVG 20010904//EN"
 "http://www.w3.org/TR/2001/REC-SVG-20010904/DTD/svg10.dtd">
<svg version="1.0" xmlns="http://www.w3.org/2000/svg"
 width="700.000000pt" height="700.000000pt" viewBox="0 0 700.000000 700.000000"
 preserveAspectRatio="xMidYMid meet">
<metadata>
Created by potrace 1.14, written by Peter Selinger 2001-2017
</metadata>
<g transform="translate(0.000000,700.000000) scale(0.100000,-0.100000)"
fill="#000000" stroke="none">
<path d="M3205 6839 c-1237 -115 -2307 -896 -2793 -2039 -280 -659 -337 -1420
-161 -2125 235 -935 873 -1732 1739 -2169 478 -242 961 -357 1500 -359 404 -1
731 52 1103 180 888 304 1620 982 1987 1838 247 574 330 1209 241 1820 -165
1121 -892 2091 -1921 2561 -313 143 -627 233 -981 280 -137 18 -573 26 -714
13z m253 -451 c7 -7 12 -26 12 -43 0 -42 24 -72 68 -85 55 -15 81 -13 176 15
96 28 126 23 126 -19 0 -29 -10 -37 -82 -65 -75 -30 -92 -50 -85 -98 9 -56 36
-76 107 -81 73 -5 127 7 247 59 106 45 132 48 159 18 17 -19 19 -35 16 -143
-5 -182 29 -246 130 -246 52 0 80 18 114 71 14 22 37 44 52 50 44 17 107 2
143 -34 l32 -31 -9 -81 c-4 -44 -8 -114 -9 -155 0 -90 19 -124 99 -174 81 -51
145 -74 353 -126 107 -27 209 -57 226 -67 36 -21 63 -69 72 -127 5 -27 17 -48
41 -69 37 -34 42 -59 20 -111 -18 -43 -57 -73 -107 -81 -35 -6 -39 -10 -33
-28 10 -36 46 -65 104 -84 42 -14 57 -24 64 -45 13 -36 -9 -86 -41 -94 -13 -4
-76 6 -139 21 -122 28 -157 27 -174 -5 -30 -56 30 -78 300 -110 126 -15 163
-26 200 -56 58 -50 34 -108 -60 -144 -93 -36 -109 -64 -70 -127 28 -47 56 -60
145 -68 76 -7 115 -23 115 -48 0 -36 45 -98 95 -131 65 -43 69 -61 30 -144
-31 -67 -31 -96 0 -147 28 -45 31 -93 14 -190 -15 -76 -9 -99 36 -156 19 -24
35 -49 35 -56 0 -7 -13 -27 -29 -45 -47 -54 -62 -96 -71 -190 -14 -146 -36
-163 -197 -153 -114 8 -113 8 -203 -65 -55 -45 -73 -52 -104 -40 -22 8 -25 6
-35 -35 -6 -25 -20 -49 -30 -55 -31 -16 -88 -12 -142 11 -41 18 -59 20 -102
14 -109 -16 -119 -14 -143 29 -29 51 -44 59 -134 68 -79 7 -110 27 -110 69 0
31 -36 42 -129 37 -71 -3 -99 -10 -154 -36 -121 -56 -245 -196 -317 -358 -110
-245 -179 -645 -167 -969 11 -267 44 -446 115 -618 57 -134 60 -160 29 -191
-34 -34 -83 -38 -427 -34 -319 3 -351 8 -358 56 -4 29 25 103 94 242 159 317
243 805 231 1350 -7 334 -37 489 -120 615 -64 95 -141 108 -246 40 -121 -78
-156 -90 -266 -90 -55 0 -132 6 -170 14 -104 20 -136 8 -229 -84 -64 -64 -80
-75 -109 -75 -19 0 -45 8 -58 19 -45 34 -88 51 -161 61 -85 12 -110 31 -134
102 -17 51 -17 51 -70 12 -47 -36 -101 -55 -155 -56 -59 0 -93 20 -116 68 -16
33 -16 39 0 102 22 88 22 98 -8 118 -21 14 -34 15 -90 5 -80 -14 -105 -5 -105
40 0 30 -1 31 -35 25 -30 -6 -38 -3 -61 24 -37 41 -67 39 -148 -15 -75 -49
-90 -53 -124 -29 -27 19 -28 43 -1 139 28 103 21 115 -80 130 -48 8 -91 42
-91 73 0 22 25 49 94 106 45 37 47 40 41 77 -9 50 0 53 95 35 41 -7 80 -12 86
-9 6 2 20 22 30 44 25 57 58 70 212 85 78 8 146 20 165 30 33 17 87 63 87 74
0 4 -37 10 -82 13 -47 3 -117 16 -162 30 -142 46 -181 115 -115 205 17 23 34
42 39 42 20 0 18 35 -5 68 -28 41 -32 74 -11 91 8 7 59 19 113 27 133 20 159
30 214 81 61 57 74 95 59 166 -13 65 -8 80 43 134 l40 42 -12 46 c-9 35 -9 56
-1 80 15 47 49 56 175 48 120 -7 149 -2 171 32 25 38 12 66 -70 154 -113 120
-138 187 -100 267 26 54 100 99 346 210 65 28 131 62 147 73 18 13 44 53 69
104 23 49 54 95 75 114 37 33 106 53 179 53 37 0 40 2 33 23 -4 12 -10 40 -12
62 -7 62 13 74 150 90 160 19 188 36 246 152 16 33 36 63 43 66 23 9 44 7 56
-5z"/>
<path d="M4312 3181 c-97 -24 -120 -38 -143 -84 -11 -21 -27 -41 -35 -44 -29
-11 -92 17 -131 57 l-39 41 -34 -23 c-81 -55 -123 -184 -123 -378 0 -118 28
-276 57 -315 11 -16 17 -10 56 51 140 223 312 389 495 478 44 22 82 41 84 43
3 2 -9 18 -27 36 -36 37 -52 75 -52 123 0 40 -3 40 -108 15z"/>
</g>
</svg>
