<?xml version="1.0" encoding="utf-8"?>
<!-- Generator: Adobe Illustrator 16.0.0, SVG Export Plug-In . SVG Version: 6.00 Build 0)  -->
<!DOCTYPE svg PUBLIC "-//W3C//DTD SVG 1.1//EN" "http://www.w3.org/Graphics/SVG/1.1/DTD/svg11.dtd">
<svg version="1.1" id="Layer_1" xmlns="http://www.w3.org/2000/svg" xmlns:xlink="http://www.w3.org/1999/xlink" x="0px" y="0px"
	 width="92px" height="92px" viewBox="0 0 92 92" enable-background="new 0 0 92 92" xml:space="preserve">
<g>
	<g transform="translate(31 28)">
		<g>
			
				<radialGradient id="SVGID_1_" cx="-24.1821" cy="57.3682" r="1.527" gradientTransform="matrix(45.9006 0 0 -45.9029 1162.7928 2653.7192)" gradientUnits="userSpaceOnUse">
				<stop  offset="0.045" style="stop-color:#F47A3C"/>
				<stop  offset="1" style="stop-color:#FCEF47"/>
			</radialGradient>
			<path opacity="0.997" fill="url(#SVGID_1_)" enable-background="new    " d="M56.301,23.004c1.446-0.965,1.885-2.893,0.993-4.386
				c-0.901-1.494-2.804-2.04-4.362-1.25L-8.273,50.579c-2.305,1.321-3.687,3.813-3.587,6.466c0.11,2.656,1.684,5.033,4.084,6.172
				c2.411,1.151,5.258,0.893,7.423-0.673L56.301,23.004z"/>
			
				<radialGradient id="SVGID_2_" cx="-21.9336" cy="52.3447" r="1.2518" gradientTransform="matrix(28.1752 0 0 -28.1757 596.7112 1475.6731)" gradientUnits="userSpaceOnUse">
				<stop  offset="0.258" style="stop-color:#EE3F86"/>
				<stop  offset="1" style="stop-color:#7C5BA6"/>
			</radialGradient>
			<path fill="url(#SVGID_2_)" d="M-14.965-7.622c-2.431-1.924-5.752-2.279-8.535-0.914c-2.772,1.351-4.503,4.195-4.429,7.278
				c0.081,3.072,1.956,5.819,4.806,7.039L9.666,19.185c1.387,0.607,3.016,0.122,3.833-1.145c0.816-1.266,0.573-2.94-0.569-3.922
				L-14.965-7.622z"/>
			
				<linearGradient id="SVGID_3_" gradientUnits="userSpaceOnUse" x1="-24.29" y1="53.9844" x2="-23.7917" y2="54.3296" gradientTransform="matrix(40.5596 0 0 -33.6423 966.192 1812.7645)">
				<stop  offset="0" style="stop-color:#EE3F86"/>
				<stop  offset="1" style="stop-color:#F05A73"/>
			</linearGradient>
			<path opacity="0.999" fill="url(#SVGID_3_)" enable-background="new    " d="M9.112-27.715c-1.769-0.547-3.688-0.295-5.255,0.691
				l-28.455,19.11c-2.376,1.682-3.629,4.54-3.255,7.427c0.387,2.891,2.333,5.334,5.064,6.358c2.74,1.037,5.827,0.501,8.057-1.396
				l25.94-21.382c1.803-1.439,2.659-3.76,2.222-6.025c-0.446-2.269-2.106-4.109-4.319-4.784V-27.715z"/>
			
				<radialGradient id="SVGID_4_" cx="-25.4541" cy="58.0068" r="1.242" gradientTransform="matrix(50.4476 0 0 -50.4485 1291.6268 2905.1304)" gradientUnits="userSpaceOnUse">
				<stop  offset="0.134" style="stop-color:#F05A73"/>
				<stop  offset="1" style="stop-color:#F47A3C"/>
			</radialGradient>
			<path opacity="0.997" fill="url(#SVGID_4_)" enable-background="new    " d="M11.675-26.192c-1.64-1.6-4.014-2.193-6.212-1.554
				c-2.194,0.63-3.872,2.403-4.381,4.627c-0.499,2.22,0.258,4.536,1.972,6.032l49.393,39.962c1.352,1.043,3.271,0.897,4.449-0.337
				c1.171-1.229,1.2-3.151,0.066-4.416L11.675-26.192z"/>
		</g>
		<path fill="#010101" d="M-1.743-2.568H34.63v35.994H-1.743V-2.568z"/>
		<path fill="#FFFFFF" d="M1.395,26.678h13.64v2.25H1.395V26.678z"/>
		<g transform="translate(28.463 28.855)">
			<path fill="#FFFFFF" d="M-25.137-20.957c0.599,0.027,1.185-0.187,1.625-0.595c0.42-0.446,0.631-1.044,0.585-1.651v-3.721h-1.635
				v3.713c0.041,0.199-0.01,0.407-0.138,0.565c-0.13,0.16-0.324,0.254-0.531,0.256c-0.379-0.025-0.724-0.227-0.93-0.546l-1.06,0.989
				C-26.738-21.286-25.955-20.915-25.137-20.957L-25.137-20.957z M-17.736-22.44h-3.185v-0.931h2.845v-1.283h-2.845v-0.896h3.142
				v-1.375h-4.768v5.867h4.811V-22.44z M-15.631-21.057h1.643v-4.442h1.779v-1.425h-5.193v1.424h1.771V-21.057z M-22.944-16.887
				c0.556-0.192,0.925-0.72,0.915-1.308v-0.016c0.008-0.357-0.13-0.703-0.382-0.956c-0.45-0.379-1.031-0.567-1.617-0.52h-3.04v5.867
				h3.057c1.415,0,2.245-0.611,2.245-1.617v-0.016C-21.753-16.155-22.253-16.764-22.944-16.887z M-25.469-18.379h1.077
				c0.482,0,0.746,0.176,0.746,0.503v0.016c0,0.345-0.289,0.511-0.787,0.511h-1.036L-25.469-18.379L-25.469-18.379z M-23.409-15.663
				c0,0.343-0.28,0.536-0.788,0.536h-1.273v-1.08h1.254c0.55,0,0.805,0.208,0.805,0.526L-23.409-15.663L-23.409-15.663z
				 M-14.34-19.729l-2.215,5.205l-0.927-1.341c0.755-0.276,1.247-1.006,1.22-1.81v-0.018c0.023-0.508-0.167-1.004-0.525-1.366
				c-0.535-0.458-1.229-0.685-1.931-0.629h-2.803v5.867h1.644v-1.777h0.728l1.194,1.777h2.819l0.423-1.056h2.297l0.424,1.056h1.76
				l-2.523-5.909H-14.34z M-17.906-17.565c-0.009,0.215-0.11,0.415-0.279,0.549c-0.169,0.132-0.388,0.186-0.601,0.148h-1.092v-1.418
				h1.083c0.216-0.043,0.439,0.01,0.611,0.146c0.171,0.135,0.273,0.34,0.277,0.558V-17.565L-17.906-17.565z M-14.23-16.14
				l0.668-1.66l0.66,1.66H-14.23z M-10.039-19.687h1.643v5.867h-1.643V-19.687z M-4.018-16.584l-2.438-3.102h-1.532v5.867h1.625
				v-3.218l2.541,3.218h1.431v-5.867h-1.626V-16.584z M0.684-17.474c-0.83-0.183-1.033-0.301-1.033-0.57v-0.016
				c0-0.218,0.195-0.378,0.593-0.378c0.599,0.019,1.178,0.22,1.66,0.578l0.82-1.147c-0.697-0.537-1.56-0.813-2.439-0.779
				c-1.422,0-2.294,0.787-2.294,1.876v0.018c0,1.198,0.974,1.55,2.235,1.835c0.813,0.193,1.008,0.319,1.008,0.57v0.017
				c0,0.251-0.236,0.403-0.687,0.403c-0.701-0.009-1.379-0.258-1.921-0.704l-0.915,1.082c0.778,0.649,1.764,0.995,2.776,0.972
				c1.441,0,2.397-0.712,2.397-1.912v-0.017C2.886-16.744,2.039-17.18,0.684-17.474z"/>
		</g>
	</g>
</g>
</svg>
