<?xml version="1.0" encoding="UTF-8"?><svg xmlns="http://www.w3.org/2000/svg" xmlns:xlink="http://www.w3.org/1999/xlink" fill-opacity="1" color-rendering="auto" color-interpolation="auto" text-rendering="auto" stroke="black" stroke-linecap="square" width="724" stroke-miterlimit="10" shape-rendering="auto" stroke-opacity="1" fill="black" stroke-dasharray="none" font-weight="normal" stroke-width="1" height="580" font-family="'Dialog'" font-style="normal" stroke-linejoin="miter" font-size="12px" stroke-dashoffset="0" image-rendering="auto">
  <!--Generated by ySVG 2.6-->
  <defs id="genericDefs"/>
  <g>
    <defs id="defs1">
      <linearGradient x1="500" gradientUnits="userSpaceOnUse" x2="580" y1="160" y2="200" id="linearGradient1" spreadMethod="reflect">
        <stop stop-opacity="1" stop-color="rgb(232,238,247)" offset="0%"/>
        <stop stop-opacity="1" stop-color="rgb(183,201,227)" offset="100%"/>
      </linearGradient>
      <linearGradient x1="407.5" gradientUnits="userSpaceOnUse" x2="672.5" y1="268" y2="392" id="linearGradient2" spreadMethod="reflect">
        <stop stop-opacity="1" stop-color="rgb(232,238,247)" offset="0%"/>
        <stop stop-opacity="1" stop-color="rgb(183,201,227)" offset="100%"/>
      </linearGradient>
      <linearGradient x1="759" gradientUnits="userSpaceOnUse" x2="921" y1="400" y2="440" id="linearGradient3" spreadMethod="reflect">
        <stop stop-opacity="1" stop-color="rgb(232,238,247)" offset="0%"/>
        <stop stop-opacity="1" stop-color="rgb(183,201,227)" offset="100%"/>
      </linearGradient>
      <linearGradient x1="766" gradientUnits="userSpaceOnUse" x2="914" y1="504.5" y2="575.5" id="linearGradient4" spreadMethod="reflect">
        <stop stop-opacity="1" stop-color="rgb(232,238,247)" offset="0%"/>
        <stop stop-opacity="1" stop-color="rgb(183,201,227)" offset="100%"/>
      </linearGradient>
      <linearGradient x1="500" gradientUnits="userSpaceOnUse" x2="580" y1="670" y2="710" id="linearGradient5" spreadMethod="reflect">
        <stop stop-opacity="1" stop-color="rgb(232,238,247)" offset="0%"/>
        <stop stop-opacity="1" stop-color="rgb(183,201,227)" offset="100%"/>
      </linearGradient>
      <linearGradient x1="939" gradientUnits="userSpaceOnUse" x2="1101" y1="610" y2="650" id="linearGradient6" spreadMethod="reflect">
        <stop stop-opacity="1" stop-color="rgb(232,238,247)" offset="0%"/>
        <stop stop-opacity="1" stop-color="rgb(183,201,227)" offset="100%"/>
      </linearGradient>
      <clipPath clipPathUnits="userSpaceOnUse" id="clipPath1">
        <path d="M0 0 L724 0 L724 580 L0 580 L0 0 Z"/>
      </clipPath>
      <clipPath clipPathUnits="userSpaceOnUse" id="clipPath2">
        <path d="M392 145 L1116 145 L1116 725 L392 725 L392 145 Z"/>
      </clipPath>
    </defs>
    <g fill="white" text-rendering="geometricPrecision" shape-rendering="geometricPrecision" transform="translate(-392,-145)" stroke="white">
      <rect x="392" width="724" height="580" y="145" clip-path="url(#clipPath2)" stroke="none"/>
    </g>
    <g fill="url(#linearGradient1)" text-rendering="geometricPrecision" shape-rendering="geometricPrecision" transform="matrix(1,0,0,1,-392,-145)" stroke="url(#linearGradient1)">
      <ellipse rx="40" ry="20" clip-path="url(#clipPath2)" cx="540" cy="180" stroke="none"/>
    </g>
    <g text-rendering="geometricPrecision" stroke-miterlimit="1.45" shape-rendering="geometricPrecision" transform="matrix(1,0,0,1,-392,-145)" stroke-linecap="butt">
      <ellipse rx="40" fill="none" ry="20" clip-path="url(#clipPath2)" cx="540" cy="180"/>
      <text x="527.3291" xml:space="preserve" y="184.7139" clip-path="url(#clipPath2)" font-family="sans-serif" stroke="none">Start</text>
    </g>
    <g fill="url(#linearGradient2)" text-rendering="geometricPrecision" shape-rendering="geometricPrecision" transform="matrix(1,0,0,1,-392,-145)" stroke="url(#linearGradient2)">
      <path d="M540 268 L672.5 330 L540 392 L407.5 330 Z" stroke="none" clip-path="url(#clipPath2)"/>
    </g>
    <g text-rendering="geometricPrecision" stroke-miterlimit="1.45" shape-rendering="geometricPrecision" transform="matrix(1,0,0,1,-392,-145)" stroke-linecap="butt">
      <path fill="none" d="M540 268 L672.5 330 L540 392 L407.5 330 Z" clip-path="url(#clipPath2)"/>
      <text x="454.9834" xml:space="preserve" y="334.7139" clip-path="url(#clipPath2)" font-family="sans-serif" stroke="none">REQUEST_METHOD == POST</text>
    </g>
    <g fill="url(#linearGradient3)" text-rendering="geometricPrecision" shape-rendering="geometricPrecision" transform="matrix(1,0,0,1,-392,-145)" stroke="url(#linearGradient3)">
      <path d="M759 400 L921 400 L921 440 L759 440 Z" stroke="none" clip-path="url(#clipPath2)"/>
    </g>
    <g text-rendering="geometricPrecision" stroke-miterlimit="1.45" shape-rendering="geometricPrecision" transform="matrix(1,0,0,1,-392,-145)" stroke-linecap="butt">
      <path fill="none" d="M759 400 L921 400 L921 440 L759 440 Z" clip-path="url(#clipPath2)"/>
      <text x="792.8115" xml:space="preserve" y="424.7139" clip-path="url(#clipPath2)" font-family="sans-serif" stroke="none">Result = TryLogin</text>
    </g>
    <g fill="url(#linearGradient4)" text-rendering="geometricPrecision" shape-rendering="geometricPrecision" transform="matrix(1,0,0,1,-392,-145)" stroke="url(#linearGradient4)">
      <path d="M840 504.5 L914 540 L840 575.5 L766 540 Z" stroke="none" clip-path="url(#clipPath2)"/>
    </g>
    <g text-rendering="geometricPrecision" stroke-miterlimit="1.45" shape-rendering="geometricPrecision" transform="matrix(1,0,0,1,-392,-145)" stroke-linecap="butt">
      <path fill="none" d="M840 504.5 L914 540 L840 575.5 L766 540 Z" clip-path="url(#clipPath2)"/>
      <text x="799.9775" xml:space="preserve" y="544.7139" clip-path="url(#clipPath2)" font-family="sans-serif" stroke="none">Result [ Login ]</text>
    </g>
    <g fill="url(#linearGradient5)" text-rendering="geometricPrecision" shape-rendering="geometricPrecision" transform="matrix(1,0,0,1,-392,-145)" stroke="url(#linearGradient5)">
      <rect x="500" y="670" clip-path="url(#clipPath2)" width="80" rx="20" ry="20" height="40" stroke="none"/>
    </g>
    <g text-rendering="geometricPrecision" stroke-miterlimit="1.45" shape-rendering="geometricPrecision" transform="matrix(1,0,0,1,-392,-145)" stroke-linecap="butt">
      <rect x="500" y="670" clip-path="url(#clipPath2)" fill="none" width="80" rx="20" ry="20" height="40"/>
      <text x="525.9873" xml:space="preserve" y="694.7139" clip-path="url(#clipPath2)" font-family="sans-serif" stroke="none">Ende</text>
    </g>
    <g fill="url(#linearGradient6)" text-rendering="geometricPrecision" shape-rendering="geometricPrecision" transform="matrix(1,0,0,1,-392,-145)" stroke="url(#linearGradient6)">
      <path d="M939 610 L1101 610 L1101 650 L939 650 Z" stroke="none" clip-path="url(#clipPath2)"/>
    </g>
    <g text-rendering="geometricPrecision" stroke-miterlimit="1.45" shape-rendering="geometricPrecision" transform="matrix(1,0,0,1,-392,-145)" stroke-linecap="butt">
      <path fill="none" d="M939 610 L1101 610 L1101 650 L939 650 Z" clip-path="url(#clipPath2)"/>
      <text x="963.1377" xml:space="preserve" y="634.7139" clip-path="url(#clipPath2)" font-family="sans-serif" stroke="none">Session-&gt;set( Login )</text>
    </g>
    <g text-rendering="geometricPrecision" stroke-miterlimit="1.45" shape-rendering="geometricPrecision" transform="matrix(1,0,0,1,-392,-145)" stroke-linecap="butt">
      <path fill="none" d="M540 200.0317 L540 260.0303" clip-path="url(#clipPath2)"/>
    </g>
    <g text-rendering="geometricPrecision" stroke-miterlimit="1.45" shape-rendering="geometricPrecision" transform="matrix(1,0,0,1,-392,-145)" stroke-linecap="butt">
      <path d="M540 268.0303 L545 256.0303 L540 259.0303 L535 256.0303 Z" stroke="none" clip-path="url(#clipPath2)"/>
      <path fill="none" d="M672.5317 330 L840 330 L840 392.0049" clip-path="url(#clipPath2)"/>
      <path d="M840 400.0049 L845 388.0049 L840 391.0049 L835 388.0049 Z" clip-path="url(#clipPath2)" stroke="none"/>
      <text x="754.5806" xml:space="preserve" y="364.7139" clip-path="url(#clipPath2)" font-family="sans-serif" stroke="none">true</text>
      <path fill="none" d="M840 440.0098 L840 496.5054" clip-path="url(#clipPath2)"/>
      <path d="M840 504.5054 L845 492.5054 L840 495.5054 L835 492.5054 Z" clip-path="url(#clipPath2)" stroke="none"/>
      <path fill="none" d="M540 392.0068 L540 662.0295" clip-path="url(#clipPath2)"/>
      <path d="M540 670.0295 L545 658.0295 L540 661.0295 L535 658.0295 Z" clip-path="url(#clipPath2)" stroke="none"/>
      <text x="497.3262" xml:space="preserve" y="535.7139" clip-path="url(#clipPath2)" font-family="sans-serif" stroke="none">false</text>
      <path fill="none" d="M840 575.4858 L840 690 L588.0269 690" clip-path="url(#clipPath2)"/>
      <path d="M580.0269 690 L592.0269 695 L589.0269 690 L592.0269 685 Z" clip-path="url(#clipPath2)" stroke="none"/>
      <text x="797.3262" xml:space="preserve" y="644.6392" clip-path="url(#clipPath2)" font-family="sans-serif" stroke="none">false</text>
      <path fill="none" d="M913.96 540 L1020 540 L1020 602.0049" clip-path="url(#clipPath2)"/>
      <path d="M1020 610.0049 L1025 598.0049 L1020 601.0049 L1015 598.0049 Z" clip-path="url(#clipPath2)" stroke="none"/>
      <text x="965.3306" xml:space="preserve" y="574.7139" clip-path="url(#clipPath2)" font-family="sans-serif" stroke="none">true</text>
      <path fill="none" d="M1020 650.0098 L1020 690 L588.025 690" clip-path="url(#clipPath2)"/>
      <path d="M580.025 690 L592.025 695 L589.025 690 L592.025 685 Z" clip-path="url(#clipPath2)" stroke="none"/>
    </g>
  </g>
</svg>
