<?xml version="1.0" encoding="UTF-8"?><svg xmlns="http://www.w3.org/2000/svg" xmlns:xlink="http://www.w3.org/1999/xlink" fill-opacity="1" color-rendering="auto" color-interpolation="auto" text-rendering="auto" stroke="black" stroke-linecap="square" width="516" stroke-miterlimit="10" shape-rendering="auto" stroke-opacity="1" fill="black" stroke-dasharray="none" font-weight="normal" stroke-width="1" height="460" font-family="'Dialog'" font-style="normal" stroke-linejoin="miter" font-size="12px" stroke-dashoffset="0" image-rendering="auto">
  <!--Generated by ySVG 2.6-->
  <defs id="genericDefs"/>
  <g>
    <defs id="defs1">
      <linearGradient x1="650" gradientUnits="userSpaceOnUse" x2="730" y1="310" y2="350" id="linearGradient1" spreadMethod="reflect">
        <stop stop-opacity="1" stop-color="rgb(232,238,247)" offset="0%"/>
        <stop stop-opacity="1" stop-color="rgb(183,201,227)" offset="100%"/>
      </linearGradient>
      <linearGradient x1="627.5" gradientUnits="userSpaceOnUse" x2="752.5" y1="490" y2="590" id="linearGradient2" spreadMethod="reflect">
        <stop stop-opacity="1" stop-color="rgb(232,238,247)" offset="0%"/>
        <stop stop-opacity="1" stop-color="rgb(183,201,227)" offset="100%"/>
      </linearGradient>
      <linearGradient x1="627.5" gradientUnits="userSpaceOnUse" x2="752.5" y1="400" y2="440" id="linearGradient3" spreadMethod="reflect">
        <stop stop-opacity="1" stop-color="rgb(232,238,247)" offset="0%"/>
        <stop stop-opacity="1" stop-color="rgb(183,201,227)" offset="100%"/>
      </linearGradient>
      <linearGradient x1="807.5" gradientUnits="userSpaceOnUse" x2="932.5" y1="610" y2="650" id="linearGradient4" spreadMethod="reflect">
        <stop stop-opacity="1" stop-color="rgb(232,238,247)" offset="0%"/>
        <stop stop-opacity="1" stop-color="rgb(183,201,227)" offset="100%"/>
      </linearGradient>
      <linearGradient x1="447.5" gradientUnits="userSpaceOnUse" x2="572.5" y1="610" y2="650" id="linearGradient5" spreadMethod="reflect">
        <stop stop-opacity="1" stop-color="rgb(232,238,247)" offset="0%"/>
        <stop stop-opacity="1" stop-color="rgb(183,201,227)" offset="100%"/>
      </linearGradient>
      <linearGradient x1="650" gradientUnits="userSpaceOnUse" x2="730" y1="700" y2="740" id="linearGradient6" spreadMethod="reflect">
        <stop stop-opacity="1" stop-color="rgb(232,238,247)" offset="0%"/>
        <stop stop-opacity="1" stop-color="rgb(183,201,227)" offset="100%"/>
      </linearGradient>
      <clipPath clipPathUnits="userSpaceOnUse" id="clipPath1">
        <path d="M0 0 L516 0 L516 460 L0 460 L0 0 Z"/>
      </clipPath>
      <clipPath clipPathUnits="userSpaceOnUse" id="clipPath2">
        <path d="M432 295 L948 295 L948 755 L432 755 L432 295 Z"/>
      </clipPath>
    </defs>
    <g fill="white" text-rendering="geometricPrecision" shape-rendering="geometricPrecision" transform="translate(-432,-295)" stroke="white">
      <rect x="432" width="516" height="460" y="295" clip-path="url(#clipPath2)" stroke="none"/>
    </g>
    <g fill="url(#linearGradient1)" text-rendering="geometricPrecision" shape-rendering="geometricPrecision" transform="matrix(1,0,0,1,-432,-295)" stroke="url(#linearGradient1)">
      <ellipse rx="40" ry="20" clip-path="url(#clipPath2)" cx="690" cy="330" stroke="none"/>
    </g>
    <g text-rendering="geometricPrecision" stroke-miterlimit="1.45" shape-rendering="geometricPrecision" transform="matrix(1,0,0,1,-432,-295)" stroke-linecap="butt">
      <ellipse rx="40" fill="none" ry="20" clip-path="url(#clipPath2)" cx="690" cy="330"/>
      <text x="677.3291" xml:space="preserve" y="334.7139" clip-path="url(#clipPath2)" font-family="sans-serif" stroke="none">Start</text>
    </g>
    <g fill="url(#linearGradient2)" text-rendering="geometricPrecision" shape-rendering="geometricPrecision" transform="matrix(1,0,0,1,-432,-295)" stroke="url(#linearGradient2)">
      <path d="M690 490 L752.5 540 L690 590 L627.5 540 Z" stroke="none" clip-path="url(#clipPath2)"/>
    </g>
    <g text-rendering="geometricPrecision" stroke-miterlimit="1.45" shape-rendering="geometricPrecision" transform="matrix(1,0,0,1,-432,-295)" stroke-linecap="butt">
      <path fill="none" d="M690 490 L752.5 540 L690 590 L627.5 540 Z" clip-path="url(#clipPath2)"/>
      <text x="668.6543" xml:space="preserve" y="537.3633" clip-path="url(#clipPath2)" font-family="sans-serif" stroke="none">Session</text>
      <text x="675.3193" xml:space="preserve" y="552.0645" clip-path="url(#clipPath2)" font-family="sans-serif" stroke="none">Login</text>
    </g>
    <g fill="url(#linearGradient3)" text-rendering="geometricPrecision" shape-rendering="geometricPrecision" transform="matrix(1,0,0,1,-432,-295)" stroke="url(#linearGradient3)">
      <path d="M627.5 400 L752.5 400 L752.5 440 L627.5 440 Z" stroke="none" clip-path="url(#clipPath2)"/>
    </g>
    <g text-rendering="geometricPrecision" stroke-miterlimit="1.45" shape-rendering="geometricPrecision" transform="matrix(1,0,0,1,-432,-295)" stroke-linecap="butt">
      <path fill="none" d="M627.5 400 L752.5 400 L752.5 440 L627.5 440 Z" clip-path="url(#clipPath2)"/>
      <text x="654.3164" xml:space="preserve" y="424.7139" clip-path="url(#clipPath2)" font-family="sans-serif" stroke="none">Session Start</text>
    </g>
    <g fill="url(#linearGradient4)" text-rendering="geometricPrecision" shape-rendering="geometricPrecision" transform="matrix(1,0,0,1,-432,-295)" stroke="url(#linearGradient4)">
      <path d="M807.5 610 L932.5 610 L932.5 650 L807.5 650 Z" stroke="none" clip-path="url(#clipPath2)"/>
    </g>
    <g text-rendering="geometricPrecision" stroke-miterlimit="1.45" shape-rendering="geometricPrecision" transform="matrix(1,0,0,1,-432,-295)" stroke-linecap="butt">
      <path fill="none" d="M807.5 610 L932.5 610 L932.5 650 L807.5 650 Z" clip-path="url(#clipPath2)"/>
      <text x="825.9727" xml:space="preserve" y="634.7139" clip-path="url(#clipPath2)" font-family="sans-serif" stroke="none">Link zum Logout</text>
    </g>
    <g fill="url(#linearGradient5)" text-rendering="geometricPrecision" shape-rendering="geometricPrecision" transform="matrix(1,0,0,1,-432,-295)" stroke="url(#linearGradient5)">
      <path d="M447.5 610 L572.5 610 L572.5 650 L447.5 650 Z" stroke="none" clip-path="url(#clipPath2)"/>
    </g>
    <g text-rendering="geometricPrecision" stroke-miterlimit="1.45" shape-rendering="geometricPrecision" transform="matrix(1,0,0,1,-432,-295)" stroke-linecap="butt">
      <path fill="none" d="M447.5 610 L572.5 610 L572.5 650 L447.5 650 Z" clip-path="url(#clipPath2)"/>
      <text x="469.3184" xml:space="preserve" y="634.7139" clip-path="url(#clipPath2)" font-family="sans-serif" stroke="none">Login-Formular</text>
    </g>
    <g fill="url(#linearGradient6)" text-rendering="geometricPrecision" shape-rendering="geometricPrecision" transform="matrix(1,0,0,1,-432,-295)" stroke="url(#linearGradient6)">
      <rect x="650" y="700" clip-path="url(#clipPath2)" width="80" rx="20" ry="20" height="40" stroke="none"/>
    </g>
    <g text-rendering="geometricPrecision" stroke-miterlimit="1.45" shape-rendering="geometricPrecision" transform="matrix(1,0,0,1,-432,-295)" stroke-linecap="butt">
      <rect x="650" y="700" clip-path="url(#clipPath2)" fill="none" width="80" rx="20" ry="20" height="40"/>
      <text x="675.9873" xml:space="preserve" y="724.7139" clip-path="url(#clipPath2)" font-family="sans-serif" stroke="none">Ende</text>
    </g>
    <g text-rendering="geometricPrecision" stroke-miterlimit="1.45" shape-rendering="geometricPrecision" transform="matrix(1,0,0,1,-432,-295)" stroke-linecap="butt">
      <path fill="none" d="M690 349.9951 L690 392.0035" clip-path="url(#clipPath2)"/>
    </g>
    <g text-rendering="geometricPrecision" stroke-miterlimit="1.45" shape-rendering="geometricPrecision" transform="matrix(1,0,0,1,-432,-295)" stroke-linecap="butt">
      <path d="M690 400.0035 L695 388.0035 L690 391.0035 L685 388.0035 Z" stroke="none" clip-path="url(#clipPath2)"/>
      <path fill="none" d="M690 440.0098 L690 481.9561" clip-path="url(#clipPath2)"/>
      <path d="M690 489.9561 L695 477.9561 L690 480.9561 L685 477.9561 Z" clip-path="url(#clipPath2)" stroke="none"/>
      <path fill="none" d="M752.5342 540 L870 540 L870 602.0049" clip-path="url(#clipPath2)"/>
      <path d="M870 610.0049 L875 598.0049 L870 601.0049 L865 598.0049 Z" clip-path="url(#clipPath2)" stroke="none"/>
      <text x="809.5806" xml:space="preserve" y="514.7139" clip-path="url(#clipPath2)" font-family="sans-serif" stroke="none">true</text>
      <path fill="none" d="M627.4658 540 L510 540 L510 602.0049" clip-path="url(#clipPath2)"/>
      <path d="M510 610.0049 L515 598.0049 L510 601.0049 L505 598.0049 Z" clip-path="url(#clipPath2)" stroke="none"/>
      <text x="546.2393" xml:space="preserve" y="514.7139" clip-path="url(#clipPath2)" font-family="sans-serif" stroke="none">false</text>
      <path fill="none" d="M510 649.9951 L510 720 L641.9658 720" clip-path="url(#clipPath2)"/>
      <path d="M649.9658 720 L637.9658 715 L640.9658 720 L637.9658 725 Z" clip-path="url(#clipPath2)" stroke="none"/>
      <path fill="none" d="M870 649.9951 L870 720 L738.0342 720" clip-path="url(#clipPath2)"/>
      <path d="M730.0342 720 L742.0342 725 L739.0342 720 L742.0342 715 Z" clip-path="url(#clipPath2)" stroke="none"/>
    </g>
  </g>
</svg>
