<?xml version="1.0" encoding="UTF-8"?><svg xmlns="http://www.w3.org/2000/svg" xmlns:xlink="http://www.w3.org/1999/xlink" fill-opacity="1" color-rendering="auto" color-interpolation="auto" text-rendering="auto" stroke="black" stroke-linecap="square" width="439" stroke-miterlimit="10" shape-rendering="auto" stroke-opacity="1" fill="black" stroke-dasharray="none" font-weight="normal" stroke-width="1" height="370" font-family="'Dialog'" font-style="normal" stroke-linejoin="miter" font-size="12px" stroke-dashoffset="0" image-rendering="auto">
  <!--Generated by ySVG 2.6-->
  <defs id="genericDefs"/>
  <g>
    <defs id="defs1">
      <linearGradient x1="530" gradientUnits="userSpaceOnUse" x2="610" y1="160" y2="200" id="linearGradient1" spreadMethod="reflect">
        <stop stop-opacity="1" stop-color="rgb(232,238,247)" offset="0%"/>
        <stop stop-opacity="1" stop-color="rgb(183,201,227)" offset="100%"/>
      </linearGradient>
      <linearGradient x1="465.5" gradientUnits="userSpaceOnUse" x2="674.5" y1="244" y2="356" id="linearGradient2" spreadMethod="reflect">
        <stop stop-opacity="1" stop-color="rgb(232,238,247)" offset="0%"/>
        <stop stop-opacity="1" stop-color="rgb(183,201,227)" offset="100%"/>
      </linearGradient>
      <linearGradient x1="704.5" gradientUnits="userSpaceOnUse" x2="873.5" y1="370" y2="410" id="linearGradient3" spreadMethod="reflect">
        <stop stop-opacity="1" stop-color="rgb(232,238,247)" offset="0%"/>
        <stop stop-opacity="1" stop-color="rgb(183,201,227)" offset="100%"/>
      </linearGradient>
      <linearGradient x1="530" gradientUnits="userSpaceOnUse" x2="610" y1="460" y2="500" id="linearGradient4" spreadMethod="reflect">
        <stop stop-opacity="1" stop-color="rgb(232,238,247)" offset="0%"/>
        <stop stop-opacity="1" stop-color="rgb(183,201,227)" offset="100%"/>
      </linearGradient>
      <clipPath clipPathUnits="userSpaceOnUse" id="clipPath1">
        <path d="M0 0 L439 0 L439 370 L0 370 L0 0 Z"/>
      </clipPath>
      <clipPath clipPathUnits="userSpaceOnUse" id="clipPath2">
        <path d="M450 145 L889 145 L889 515 L450 515 L450 145 Z"/>
      </clipPath>
    </defs>
    <g fill="white" text-rendering="geometricPrecision" shape-rendering="geometricPrecision" transform="translate(-450,-145)" stroke="white">
      <rect x="450" width="439" height="370" y="145" clip-path="url(#clipPath2)" stroke="none"/>
    </g>
    <g fill="url(#linearGradient1)" text-rendering="geometricPrecision" shape-rendering="geometricPrecision" transform="matrix(1,0,0,1,-450,-145)" stroke="url(#linearGradient1)">
      <ellipse rx="40" ry="20" clip-path="url(#clipPath2)" cx="570" cy="180" stroke="none"/>
    </g>
    <g text-rendering="geometricPrecision" stroke-miterlimit="1.45" shape-rendering="geometricPrecision" transform="matrix(1,0,0,1,-450,-145)" stroke-linecap="butt">
      <ellipse rx="40" fill="none" ry="20" clip-path="url(#clipPath2)" cx="570" cy="180"/>
      <text x="557.3291" xml:space="preserve" y="184.7139" clip-path="url(#clipPath2)" font-family="sans-serif" stroke="none">Start</text>
    </g>
    <g fill="url(#linearGradient2)" text-rendering="geometricPrecision" shape-rendering="geometricPrecision" transform="matrix(1,0,0,1,-450,-145)" stroke="url(#linearGradient2)">
      <path d="M570 244 L674.5 300 L570 356 L465.5 300 Z" stroke="none" clip-path="url(#clipPath2)"/>
    </g>
    <g text-rendering="geometricPrecision" stroke-miterlimit="1.45" shape-rendering="geometricPrecision" transform="matrix(1,0,0,1,-450,-145)" stroke-linecap="butt">
      <path fill="none" d="M570 244 L674.5 300 L570 356 L465.5 300 Z" clip-path="url(#clipPath2)"/>
      <text x="509.3525" xml:space="preserve" y="304.7139" clip-path="url(#clipPath2)" font-family="sans-serif" stroke="none">isset( $_GET['logout'] )</text>
    </g>
    <g fill="url(#linearGradient3)" text-rendering="geometricPrecision" shape-rendering="geometricPrecision" transform="matrix(1,0,0,1,-450,-145)" stroke="url(#linearGradient3)">
      <path d="M704.5 370 L873.5 370 L873.5 410 L704.5 410 Z" stroke="none" clip-path="url(#clipPath2)"/>
    </g>
    <g text-rendering="geometricPrecision" stroke-miterlimit="1.45" shape-rendering="geometricPrecision" transform="matrix(1,0,0,1,-450,-145)" stroke-linecap="butt">
      <path fill="none" d="M704.5 370 L873.5 370 L873.5 410 L704.5 410 Z" clip-path="url(#clipPath2)"/>
      <text x="738.4805" xml:space="preserve" y="394.7139" clip-path="url(#clipPath2)" font-family="sans-serif" stroke="none">Session-&gt;destroy()</text>
    </g>
    <g fill="url(#linearGradient4)" text-rendering="geometricPrecision" shape-rendering="geometricPrecision" transform="matrix(1,0,0,1,-450,-145)" stroke="url(#linearGradient4)">
      <rect x="530" y="460" clip-path="url(#clipPath2)" width="80" rx="20" ry="20" height="40" stroke="none"/>
    </g>
    <g text-rendering="geometricPrecision" stroke-miterlimit="1.45" shape-rendering="geometricPrecision" transform="matrix(1,0,0,1,-450,-145)" stroke-linecap="butt">
      <rect x="530" y="460" clip-path="url(#clipPath2)" fill="none" width="80" rx="20" ry="20" height="40"/>
      <text x="555.9873" xml:space="preserve" y="484.7139" clip-path="url(#clipPath2)" font-family="sans-serif" stroke="none">Ende</text>
    </g>
    <g text-rendering="geometricPrecision" stroke-miterlimit="1.45" shape-rendering="geometricPrecision" transform="matrix(1,0,0,1,-450,-145)" stroke-linecap="butt">
      <path fill="none" d="M570 200.0098 L570 235.9996" clip-path="url(#clipPath2)"/>
    </g>
    <g text-rendering="geometricPrecision" stroke-miterlimit="1.45" shape-rendering="geometricPrecision" transform="matrix(1,0,0,1,-450,-145)" stroke-linecap="butt">
      <path d="M570 243.9996 L575 231.9996 L570 234.9996 L565 231.9996 Z" stroke="none" clip-path="url(#clipPath2)"/>
      <path fill="none" d="M674.5009 300 L789 300 L789 362.0049" clip-path="url(#clipPath2)"/>
      <path d="M789 370.0049 L794 358.0049 L789 361.0049 L784 358.0049 Z" clip-path="url(#clipPath2)" stroke="none"/>
      <text x="730.0806" xml:space="preserve" y="334.7139" clip-path="url(#clipPath2)" font-family="sans-serif" stroke="none">true</text>
      <path fill="none" d="M570 356.0303 L570 451.9941" clip-path="url(#clipPath2)"/>
      <path d="M570 459.9941 L575 447.9941 L570 450.9941 L565 447.9941 Z" clip-path="url(#clipPath2)" stroke="none"/>
      <text x="527.3262" xml:space="preserve" y="412.7139" clip-path="url(#clipPath2)" font-family="sans-serif" stroke="none">false</text>
      <path fill="none" d="M789 409.9951 L789 480 L618.0199 480" clip-path="url(#clipPath2)"/>
      <path d="M610.0199 480 L622.0199 485 L619.0199 480 L622.0199 475 Z" clip-path="url(#clipPath2)" stroke="none"/>
    </g>
  </g>
</svg>
