<?xml version="1.0" encoding="UTF-8" standalone="no"?>
<!DOCTYPE svg PUBLIC "-//W3C//DTD SVG 1.0//EN" "http://www.w3.org/TR/2001/PR-SVG-20010719/DTD/svg10.dtd">
<svg width="20cm" height="7cm" viewBox="200 236 381 125" xmlns="http://www.w3.org/2000/svg" xmlns:xlink="http://www.w3.org/1999/xlink">
  <g>
    <line style="fill: none; fill-opacity:0; stroke-width: 2; stroke: #000000" x1="370" y1="280" x2="370" y2="296"/>
    <line style="fill: none; fill-opacity:0; stroke-width: 2; stroke: #000000" x1="360" y1="296" x2="380" y2="296"/>
    <line style="fill: none; fill-opacity:0; stroke-width: 2; stroke: #000000" x1="360" y1="304" x2="380" y2="304"/>
    <line style="fill: none; fill-opacity:0; stroke-width: 2; stroke: #000000" x1="370" y1="304" x2="370" y2="320"/>
  </g>
  <path style="fill: none; fill-opacity:0; stroke-width: 2; stroke: #000000" d="M 560 280 L 560,292 C 570,290.5 580,289 580,296.5 C 580,304 560,305.5 560,301 C 560,296.5 580,298 580,305.5 C 580,313 560,314.5 560,310 C 560,305.5 580,307 580,314.5 C 580,322 560,323.5 560,319 C 560,314.5 580,316 580,323.5 C 580,331 565,329.5 560,328 L 560,340"/>
  <polyline style="fill: none; fill-opacity:0; stroke-width: 2; stroke: #000000" points="420,250 444,250 446.667,240 452,260 457.333,240 462.667,260 468,240 473.333,260 476,250 500,250 "/>
  <g>
    <line style="fill: none; fill-opacity:0; stroke-width: 2; stroke: #000000" x1="440" y1="340" x2="452" y2="340"/>
    <polyline style="fill: none; fill-opacity:0; stroke-width: 2; stroke: #000000" points="480,340 468,340 452,348 "/>
    <polyline style="fill: none; fill-opacity:0; stroke-width: 2; stroke: #000000" points="464,342 458,350 456,346 "/>
    <text font-size="12.7998" style="fill: #000000;text-anchor:middle;font-family:sans-serif;font-style:normal;font-weight:normal" x="460" y="336">
      <tspan x="460" y="336"></tspan>
    </text>
  </g>
  <g>
    <line style="fill: none; fill-opacity:0; stroke-width: 2; stroke: #000000" x1="260" y1="340" x2="272" y2="340"/>
    <polyline style="fill: none; fill-opacity:0; stroke-width: 2; stroke: #000000" points="300,340 288,340 272,348 "/>
    <polyline style="fill: none; fill-opacity:0; stroke-width: 2; stroke: #000000" points="284,342 278,350 276,346 "/>
    <text font-size="12.7998" style="fill: #000000;text-anchor:middle;font-family:sans-serif;font-style:normal;font-weight:normal" x="280" y="336">
      <tspan x="280" y="336"></tspan>
    </text>
  </g>
  <g>
    <line style="fill: none; fill-opacity:0; stroke-width: 2; stroke: #000000" x1="210" y1="280" x2="210" y2="305"/>
    <line style="fill: none; fill-opacity:0; stroke-width: 2; stroke: #000000" x1="200" y1="305" x2="220" y2="305"/>
    <line style="fill: none; fill-opacity:0; stroke-width: 2; stroke: #000000" x1="205" y1="315" x2="215" y2="315"/>
    <line style="fill: none; fill-opacity:0; stroke-width: 2; stroke: #000000" x1="215" y1="290" x2="215" y2="300"/>
    <line style="fill: none; fill-opacity:0; stroke-width: 2; stroke: #000000" x1="212.5" y1="295" x2="217.5" y2="295"/>
    <line style="fill: none; fill-opacity:0; stroke-width: 2; stroke: #000000" x1="210" y1="315" x2="210" y2="340"/>
  </g>
  <line style="fill: none; fill-opacity:0; stroke-width: 2; stroke: #000000" x1="210" y1="340" x2="260" y2="340"/>
  <line style="fill: none; fill-opacity:0; stroke-width: 2; stroke: #000000" x1="300" y1="340" x2="440" y2="340"/>
  <line style="fill: none; fill-opacity:0; stroke-width: 2; stroke: #000000" x1="370" y1="320" x2="370" y2="340"/>
  <polyline style="fill: none; fill-opacity:0; stroke-width: 2; stroke: #000000" points="420,250 210,250 210,280 "/>
  <polyline style="fill: none; fill-opacity:0; stroke-width: 2; stroke: #000000" points="370,280 370,250 420,250 "/>
  <line style="fill: none; fill-opacity:0; stroke-width: 2; stroke: #000000" x1="480" y1="340" x2="560" y2="340"/>
  <polyline style="fill: none; fill-opacity:0; stroke-width: 2; stroke: #000000" points="560,280 560,280 560,250 500,250 "/>
</svg>
