<?xml version="1.0" encoding="UTF-8"?><svg id="Ebene_1" xmlns="http://www.w3.org/2000/svg" width="500" height="500" viewBox="0 0 500 500"><path d="M109.8,265.64c-2.48,3.9-4.26,10.65,3.19,8.52,7.81-2.13,18.81-6.39,28.75-12.07,12.78-7.1,23.78-15.26,27.33-18.81-1.06-2.48-2.48-8.16-2.48-10.65,0-9.94,8.16-17.04,14.91-17.04,7.1-.36,9.58,5.32,9.23,9.58-.36,7.81-8.16,15.97-15.26,20.94,7.81,23.42,34.43,22.36,51.46,17.04,1.07-.71,3.19-.71,3.9.36.36,1.42-.36,2.13-2.13,2.84-17.39,5.68-47.91,8.52-57.85-17.75-1.78,1.77-12.07,10.29-25.91,17.75-15.62,8.16-35.14,15.26-42.23,15.26-6.39,0-8.87-4.26-8.87-8.87,0-14.55,16.68-27.68,26.26-41.17,1.42-2.48-.36-4.61-2.48-2.84-6.39,5.32-15.62,12.78-27.68,19.52-11,6.03-23.78,12.78-41.88,18.81-1.42.36-2.48.36-3.19-.71-.36-1.42.71-2.13,1.78-2.48,13.84-4.97,30.17-12.78,40.1-18.46,12.78-7.45,22.36-15.97,30.17-23.42,7.81-7.45,12.78-8.16,16.68-6.74,4.97,2.13,6.03,10.65-.36,19.17-7.45,10.29-16.33,21.65-23.42,31.23Z" style="fill:#fff; stroke-width:0px;"/><path d="M300.4,267.76c13.49,9.23,47.2,1.07,65.3-5.32,2.13-1.07,3.19-1.07,3.9.36,0,.71,0,1.77-2.84,2.84-19.17,7.45-51.82,16.68-70.63,9.58-8.87-3.19-14.91-11.71-14.91-21.65-1.78,2.13-5.32,6.39-5.32,6.03,4.26,50.75-26.62,102.92-59.27,139.83-31.94,36.2-55.01,50.4-67.08,56.43-23.07,11-48.98,3.55-.36-66.01,35.85-52.17,75.95-94.41,118.89-141.61-10.65,6.39-23.78,12.78-41.88,18.81-1.42.36-2.48.36-3.19-.71-.36-1.42.71-2.13,1.78-2.48,18.1-6.39,36.91-15.26,48.98-25.2,10.29-8.52,24.13-23.07,34.07-32.65,44.36-44.72,66.37-61.75,87.31-76.66,30.52-22,52.53-21.65,57.85-16.33,8.52,8.87-7.1,31.59-55.72,62.82-48.27,31.23-76.66,39.04-79.14,40.1-10.29,9.94-18.46,18.46-25.2,25.91-2.49,5.68,0,20.94,7.45,25.91ZM270.58,265.64c-50.4,55.37-89.79,101.86-110.73,133.8-34.07,50.75-23.42,57.49-9.58,51.46,10.65-4.26,31.94-19.88,62.82-53.95,33.01-36.55,60.69-88.02,57.5-131.32ZM396.22,172.29c41.52-27.33,55.01-44.01,50.04-52.17-2.48-3.55-18.1,2.13-40.1,17.39-26.62,18.46-46.14,35.49-81.28,70.63,0,0,29.46-8.52,71.34-35.85Z" style="fill:#fff; stroke-width:0px;"/></svg>